<svg width="190" height="182" viewBox="0 0 190 182" fill="none" xmlns="http://www.w3.org/2000/svg">
<path d="M57.1472 40.5251C59.8477 35.9336 62.2987 31.8535 65.3481 27.3612C79.0712 7.14428 104.087 -8.37032 128.11 4.99022C135.532 9.1183 141.59 16.4378 141.396 25.429C145.789 30.9305 148.42 40.2911 146.314 47.1786C149.426 48.1814 153.572 50.3163 156.414 51.9354C167.775 58.4088 177.78 67.4125 183.789 79.1745C190.112 91.5433 191.204 105.934 186.815 119.114C184.363 126.616 179.639 133.43 174.27 139.128C173.298 140.161 171.094 142.471 169.896 143.089C164.186 159.869 147.696 167.038 131.101 167.946C126.956 168.173 122.728 167.347 118.698 168.232C115.061 169.029 111.658 171.135 108.278 172.624C89.5133 181.669 68.5124 185.149 49.2396 175.215C33.0741 166.881 21.8941 152.268 16.1956 134.981C15.618 134.91 15.4387 134.832 15.0177 134.394C6.39296 125.431 0.674802 113.516 0.0613225 101.125C-1.36749 72.2689 22.3976 51.3924 47.7689 43.016C50.4783 42.1215 54.313 40.6691 57.1472 40.5251Z" fill="#E08857"/>
<path d="M38.6327 78.9285C46.2511 71.86 50.99 62.7581 55.5207 53.5375C63.3423 37.6009 72.0204 21.1011 87.0414 10.7929C95.7472 4.81824 105.505 1.74368 116.043 3.82493C124.896 5.58684 132.698 10.7695 137.755 18.2478C141.941 24.5648 145.392 38.9866 143.583 46.441C141.61 54.5674 137.705 59.1528 131.04 63.5766C130.606 63.6735 130.413 63.7414 129.966 63.7564C131.538 61.9849 133.665 59.8564 135.09 58.054C139.386 52.6214 141.597 47.3516 141.065 40.3696C140.873 37.8606 139.944 35.0043 139.887 33.007L139.883 32.7965C123.433 47.3364 108.146 33.6962 90.6885 41.0613C83.5893 44.0563 79.2291 52.1402 74.5321 57.8287C72.0329 60.9103 69.1666 63.6752 65.997 66.0619C57.2983 72.6871 48.1763 74.5246 38.6327 78.9285Z" fill="white"/>
<path d="M138.144 30.3881L138.219 30.5469C138.111 31.0897 136.146 32.595 135.617 32.9362C124.672 40.0537 111.49 35.7838 99.5046 35.1797C90.1671 34.7089 81.2931 37.1814 74.0998 43.297C73.0308 44.2059 71.957 45.3642 70.8783 46.1868L70.6819 46.1262L70.7501 45.8555C72.8654 42.8628 75.4334 40.2175 78.3619 38.0142C89.4533 29.5757 103.014 31.8544 115.543 34.2075C122.826 35.5751 132.031 35.0568 138.144 30.3881Z" fill="#E08857"/>
<path d="M146.314 47.1786C149.426 48.1814 153.572 50.3163 156.414 51.9354C167.775 58.4088 177.78 67.4125 183.789 79.1744C190.113 91.5433 191.204 105.934 186.815 119.114C184.363 126.616 179.639 133.43 174.27 139.128C173.298 140.161 171.094 142.471 169.896 143.089C171.877 134.759 171.138 128.17 166.168 120.98C171.332 109.644 167.804 97.272 158.352 89.4307C152.945 85.0157 146.239 82.4971 139.262 82.2619C136.986 82.1867 135.083 82.3882 132.823 82.5965C128.882 77.5378 121.07 73.7457 114.871 72.6116C115.76 71.609 116.081 70.976 116.752 69.8122C117.636 69.9348 118.551 70.0474 119.444 70.022C124.486 69.8777 121.225 60.9918 126.115 60.5605C128.479 57.3502 131.859 56.9746 134.695 54.1782C136.332 52.5631 136.817 51.2175 138.059 49.3517C135.755 55.7408 133.299 58.6202 128.982 63.7149C129.902 64.0962 129.317 63.664 129.966 63.7564C130.413 63.7415 130.606 63.6735 131.04 63.5767L131.403 63.898C132.402 63.5553 133.193 63.0057 134.103 62.4883C139.996 59.1388 144.654 53.9046 146.314 47.1786Z" fill="#FEE4DD"/>
<path d="M131.04 63.5766L131.403 63.898C130.411 64.0342 128.381 65.1724 127.413 65.6807C127.928 64.7338 128.183 64.4417 128.982 63.7149C129.902 64.0962 129.317 63.6639 129.966 63.7563C130.413 63.7414 130.606 63.6734 131.04 63.5766Z" fill="#EB9861"/>
<path d="M57.1472 40.5251C51.8433 50.3661 46.8875 61.1117 40.243 70.1486C36.1365 75.7336 30.6971 80.6047 25.9047 85.5944C15.0392 96.2422 11.8381 111.261 14.1574 125.899C14.6614 129.081 15.3632 131.867 16.1956 134.981C15.618 134.91 15.4387 134.832 15.0177 134.394C6.39296 125.431 0.674803 113.516 0.0613225 101.125C-1.36749 72.2689 22.3975 51.3923 47.7689 43.0159C50.4783 42.1215 54.313 40.6691 57.1472 40.5251Z" fill="#FEE4DD"/>
<path d="M139.29 34.7476C139.345 37.0304 139.082 39.3099 138.505 41.5193C137.517 45.2464 134.706 51.2511 131.302 53.2244C123.938 53.0869 121.241 57.556 120.346 64.2188C120.258 64.8713 120.212 66.6874 119.828 67.1469C118.939 68.2159 116.834 67.2582 115.657 67.5638C113.914 67.838 114.234 69.5377 113.522 70.6439C112.886 71.3337 111.578 71.4348 111.087 70.5276C110.73 69.8709 110.057 69.438 109.339 69.2277C107.506 68.6916 106.854 67.9587 105.446 66.8175L105.165 66.8523L104.886 67.2261C104.986 69.4142 110.806 71.1209 110.498 72.7846C109.656 73.7237 108.027 73.36 107.024 74.0579C105.729 74.9643 104.916 76.4673 103.419 77.1198C100.644 78.3358 97.5548 75.4584 95.6857 73.6829C91.9005 70.0857 88.9398 65.4411 86.7639 60.7026C86.1165 59.2928 85.6722 57.8966 85.1278 56.466L84.9294 56.3891C84.7561 56.8767 84.994 58.2398 85.0744 58.7967C85.8859 64.4156 88.4655 69.1983 91.7189 73.7299C88.925 75.7057 88.2065 78.8938 88.3457 82.1163C88.3697 82.6722 88.2932 83.4883 88.6953 83.8766C89.9628 83.086 87.9449 79.2131 93.8268 76.2105C95.381 77.2315 96.755 78.4761 98.4484 79.2865C106.008 82.9061 106.769 75.7306 111.345 75.4457C112.59 75.3682 113.929 75.747 115.12 76.0621C120.37 77.4506 124.398 80.0132 128.352 83.6566C122.784 85.7938 118.671 89.4899 116.163 94.9078C115.411 96.5323 115.118 98.3824 114.342 100.014C111.086 102.387 107.233 100.23 108.736 106.439C107.784 107.341 107.327 107.797 106.669 108.916C106.93 111.124 106.618 112.395 105.859 114.48C102.938 110.283 101.533 109.08 96.6539 107.409C97.6369 108.159 98.6271 108.606 99.6364 109.528C102.084 111.77 103.676 115.627 105.222 118.602C105.973 120.052 105.891 120.953 107.103 122.803L107.208 122.961C105.693 123.44 104.525 124.038 103.133 124.782C102.165 123.828 99.3126 120.849 98.4249 120.255C98.8351 117.172 98.1027 113.883 94.9621 112.553C94.6427 110.8 94.0817 109.287 93.4796 107.626C93.2892 109.153 93.2716 111.085 93.3024 112.616C93.0753 112.58 92.8468 112.549 92.6183 112.524C87.2548 111.919 83.0032 115.479 82.4258 120.796C65.4964 113.889 63.3299 87.8929 43.3083 85.5111C42.958 85.4695 42.5797 85.4431 42.3195 85.6742L42.6453 85.9262C46.2232 86.2934 50.7986 89.3715 53.3786 91.7668C64.632 102.214 66.3308 118.764 82.2355 124.117C82.1379 132.267 82.808 138.696 88.7527 145.18C90.5303 147.118 92.7296 148.229 94.8419 149.683C72.7512 154.292 59.1463 141.69 51.8067 122.445C50.9051 120.081 50.1851 117.559 49.2635 115.241C50.1408 125.325 53.6297 135.088 59.8724 143.166C62.4903 146.552 65.0747 148.58 68.6899 150.771C62.8345 150.998 55.6736 154.281 52.5783 159.414C52.2696 159.926 51.8515 160.716 51.744 161.292C51.8426 161.193 51.9422 161.097 52.0427 161C61.2736 152.092 71.8112 153.393 83.2985 154.29C87.3597 154.607 92.2345 153.743 96.2204 153.009C102.77 151.802 106.858 146.873 112.644 144.194C117.127 142.133 122.798 142.275 127.647 141.815C130.013 141.589 132.62 140.583 134.856 140.627C135.121 140.775 135.253 140.771 135.383 141.071C136.599 143.803 130.952 145.739 129.128 146.368C126.932 147.124 124.678 147.295 122.503 148.398C124.24 148.647 127.225 148.552 128.933 148.319C134.312 147.581 136.618 145.791 140.145 141.959C142.067 139.871 144.465 137.854 146.856 136.341C149.098 134.921 149.336 135.315 151.728 134.747C152.262 134.621 152.561 133.735 152.791 133.19C153.576 132.566 155.101 131.902 156.048 131.398C159.182 129.733 161.45 127.835 163.546 124.996C168.877 133.603 165.858 144.83 159.493 152.026C151.121 161.494 138.609 165.232 126.361 165.95C138.628 161.776 145.014 154.145 149.448 142.354C149.418 142.237 149.385 142.118 149.353 142.001L149.018 141.888C148.351 142.205 146.967 144.733 146.349 145.609C144.346 148.439 142.627 150.871 140.252 153.39C135.238 158.86 128.419 162.096 121.257 163.752C116.195 164.864 111.792 166.672 107.04 168.676C94.5299 173.952 80.6217 177.724 66.9736 175.981C39.0349 172.411 19.6443 144.521 18.9311 117.572C18.6424 106.665 22.0281 94.5401 30.8059 87.4145C35.0111 84.0335 40.6792 82.1912 45.6292 80.2041C52.8113 77.4339 60.1118 74.5748 66.3525 69.9487C71.1786 66.4435 75.3391 62.1037 78.6378 57.1344C82.8627 50.7178 85.2516 45.3594 92.9157 42.7155C101.696 39.6868 109.378 42.614 118.214 42.5245C126.137 42.4441 133.643 40.6231 139.29 34.7476Z" fill="white"/>
<path d="M42.6453 85.9261C46.2232 86.2934 50.7986 89.3715 53.3787 91.7668C64.632 102.214 66.3308 118.764 82.2355 124.117C82.1379 132.267 82.808 138.696 88.7528 145.18C90.5303 147.118 92.7297 148.229 94.842 149.683C72.7512 154.292 59.1463 141.69 51.8067 122.445C50.9051 120.081 50.1852 117.559 49.2635 115.241C50.1408 125.325 53.6297 135.088 59.8725 143.166C62.4903 146.552 65.0747 148.58 68.69 150.771C62.8345 150.998 55.6736 154.281 52.5783 159.414C52.2696 159.926 51.8516 160.716 51.7441 161.291L51.2196 162.129C44.3955 157.027 38.8955 150.362 35.1818 142.694C30.267 132.762 27.3673 121.723 28.2862 110.595C28.7732 104.696 30.6466 98.063 34.3949 93.3674C35.2839 92.2369 36.2763 91.1915 37.3593 90.2453C39.0238 88.7809 40.8086 87.7289 42.5044 86.3417C42.5514 86.2032 42.5983 86.0647 42.6453 85.9261Z" fill="url(#paint0_linear_439_24)"/>
<path d="M108.116 46.5053C109.269 47.4099 110.447 49.4195 112.023 50.5782C113.431 51.6135 116.4 52.1132 116.976 52.7915C117.078 53.4044 116.851 53.9085 116.668 54.5201L116.497 54.6827C114.67 53.4989 113.418 54.2768 111.339 52.8929C109.345 51.5646 108.568 48.793 108.116 46.5053Z" fill="#E08857"/>
<path d="M111.023 43.9101C114.45 43.4356 120.787 46.654 121.71 49.9969C121.46 50.033 120.833 50.0964 120.672 49.9805C119.374 49.054 118.458 47.7646 117.131 46.7803C114.823 45.067 113.586 44.7208 111.023 43.9101Z" fill="url(#paint1_linear_439_24)"/>
<path d="M112.779 65.5813C113.676 65.5217 114.883 65.4932 115.388 66.3969C114.399 66.3105 113.123 66.639 112.779 65.5813Z" fill="#E08857"/>
<path d="M135.798 85.0994C136.014 85.0701 136.216 85.0638 136.438 85.0555C144.099 84.8309 151.486 87.2701 157.205 92.4539C166.485 100.864 168.635 115.256 159.632 124.7C155.889 128.625 150.704 131.079 145.233 131.202C143.469 130.203 141.414 128.567 139.63 127.382C138.103 126.4 136.526 125.501 134.903 124.688C127.594 121.016 118.066 119.573 110.192 122.182C108.434 119.677 106.83 117.194 108.346 114.072C108.625 113.502 108.699 112.471 108.672 111.838C108.576 109.67 109.483 108.276 110.68 106.587C109.376 101.627 113.69 104.313 116.1 101.795C117.469 100.364 117.395 98.3794 118.139 96.6304C121.319 89.1472 128.072 85.8876 135.798 85.0994Z" fill="url(#paint2_linear_439_24)"/>
<path d="M136.832 113.636C137.79 113.564 138.865 113.453 139.609 114.165C141.384 115.864 140.321 118.896 138.943 120.433C137.566 121.975 135.623 122.892 133.556 122.976C131.555 123.056 130.657 122.441 129.326 121.169C129.111 120.676 128.954 120.32 129.257 119.858C129.655 119.775 131.5 120.594 132.261 120.805C134.734 121.493 138.154 118.949 138.711 116.598C139.196 114.551 135.784 114.358 134.343 114.244C135.147 114.028 136.017 113.833 136.832 113.636Z" fill="#E08857"/>
<path d="M117.39 101.645C118.189 101.855 119.582 103.448 119.933 104.193C118.496 103.733 117.326 103.436 117.39 101.645Z" fill="#E08857"/>
<path d="M90.5428 114.648C91.2765 114.811 92.1862 115.06 92.9172 114.994C93.3127 114.957 93.7082 114.934 94.1052 114.923C96.4533 114.879 96.1047 118.21 95.9582 119.876C97.5812 122.806 99.695 124.843 101.476 127.583C101.706 127.937 101.33 128.362 101.142 128.658C107.28 125.624 114.74 122.99 121.641 123.471C130.338 124.051 138.445 128.076 144.163 134.655C141.755 136.262 139.933 138.062 137.826 140.016C137.194 139.388 137.095 139.285 136.299 138.9C133.908 138.015 130.526 139.474 128.075 139.615C121.061 140.015 114.777 139.205 108.336 142.883C105.59 144.452 103.211 146.519 100.303 147.834C99.4343 147.614 98.5891 147.4 97.7277 147.135C87.4606 143.98 83.5675 131.507 84.7337 121.802C85.2509 117.497 86.9227 116.435 90.5428 114.648Z" fill="url(#paint3_linear_439_24)"/>
<path d="M128.541 55.1847C129.026 55.1321 129.13 55.0504 129.535 55.2254C128.605 56.2458 127.574 55.816 125.687 58.433L124.501 57.1905C125.969 55.7623 126.556 55.6051 128.541 55.1847Z" fill="white"/>
<defs>
<linearGradient id="paint0_linear_439_24" x1="85.0149" y1="158.879" x2="26.1141" y2="102.058" gradientUnits="userSpaceOnUse">
<stop stop-color="#FFD0B2"/>
<stop offset="1" stop-color="#FEF5E3"/>
</linearGradient>
<linearGradient id="paint1_linear_439_24" x1="115.095" y1="47.9434" x2="117.773" y2="45.4911" gradientUnits="userSpaceOnUse">
<stop stop-color="#D95E21"/>
<stop offset="1" stop-color="#E59165"/>
</linearGradient>
<linearGradient id="paint2_linear_439_24" x1="142.304" y1="132.399" x2="129.116" y2="86.6012" gradientUnits="userSpaceOnUse">
<stop stop-color="#FFEEDA"/>
<stop offset="1" stop-color="#FEFFFF"/>
</linearGradient>
<linearGradient id="paint3_linear_439_24" x1="114.469" y1="147.16" x2="113.828" y2="114.46" gradientUnits="userSpaceOnUse">
<stop stop-color="#FEF3E1"/>
<stop offset="1" stop-color="#FEFFFF"/>
</linearGradient>
</defs>
</svg>
